<svg height="512pt" viewBox="0 0 512 512" width="512pt" xmlns="http://www.w3.org/2000/svg"><path d="m499.03125 504.5h-87.492188c-2.761718 0-5-2.238281-5-5v-29.214844c0-14.765625 11.96875-26.734375 26.734376-26.734375h44.027343c14.761719 0 26.730469 11.96875 26.730469 26.734375v29.214844c0 2.761719-2.238281 5-5 5zm0 0" fill="#e7e7e7"/><path d="m504.035156 470.28125v29.21875c0 2.761719-2.238281 5-5 5h-16.601562v-34.21875c0-14.761719-11.96875-26.730469-26.730469-26.730469h21.601563c14.761718 0 26.730468 11.964844 26.730468 26.730469zm0 0" fill="#cecece"/><g fill="#9ae7fd"><path d="m58.566406 468.140625h-33.636718v-11.804687c0-5.097657 4.128906-9.226563 9.222656-9.226563h15.1875c5.09375 0 9.222656 4.128906 9.222656 9.226563v11.804687zm0 0"/><path d="m161.097656 468.140625h-102.125v-11.804687c0-5.097657 4.128906-9.226563 9.222656-9.226563h83.679688c5.09375 0 9.222656 4.128906 9.222656 9.226563zm0 0"/><path d="m194.734375 468.140625h-33.636719v-11.804687c0-5.097657 4.128906-9.226563 9.222656-9.226563h15.191407c5.09375 0 9.222656 4.128906 9.222656 9.226563zm0 0"/><path d="m228.777344 468.140625h-33.636719v-11.804687c0-5.097657 4.128906-9.226563 9.222656-9.226563h15.191407c5.09375 0 9.222656 4.128906 9.222656 9.226563zm0 0"/><path d="m296.863281 468.140625h-33.636719v-11.804687c0-5.097657 4.128907-9.226563 9.222657-9.226563h15.191406c5.09375 0 9.222656 4.128906 9.222656 9.226563zm0 0"/><path d="m330.90625 468.140625h-33.636719v-11.804687c0-5.097657 4.128907-9.226563 9.222657-9.226563h15.191406c5.09375 0 9.222656 4.128906 9.222656 9.226563zm0 0"/><path d="m364.949219 468.140625h-33.636719v-11.804687c0-5.097657 4.128906-9.226563 9.222656-9.226563h15.191406c5.09375 0 9.222657 4.128906 9.222657 9.226563zm0 0"/></g><path d="m377.378906 504.5h-364.878906c-2.761719 0-5-2.238281-5-5v-26.359375c0-2.761719 2.238281-5 5-5h364.878906c2.757813 0 5 2.238281 5 5v26.359375c0 2.761719-2.242187 5-5 5zm0 0" fill="#bfbfbf"/><path d="m377.378906 504.5h-17.050781v-36.359375h17.050781c2.757813 0 5 2.238281 5 5v26.359375c0 2.761719-2.242187 5-5 5zm0 0" fill="#acacac"/><path d="m54.761719 78.328125h401.867187v216.144531h-401.867187zm0 0" fill="#9ae7fd"/><path d="m456.632812 28.15625v295.492188c0 11.40625-9.246093 20.652343-20.65625 20.652343h-25.226562c11.40625 0 20.652344-9.246093 20.652344-20.652343v-295.492188c0-11.40625-9.246094-20.652344-20.652344-20.652344h25.226562c11.410157 0 20.65625 9.246094 20.65625 20.652344zm0 0" fill="#64dcfc"/><path d="m456.628906 294.539062h-402.316406v29.109376c0 11.40625 9.246094 20.652343 20.65625 20.652343h361.007812c11.40625 0 20.65625-9.246093 20.65625-20.652343v-29.109376zm0 0" fill="#bfbfbf"/><path d="m456.632812 294.539062v29.105469c0 11.410157-9.246093 20.65625-20.65625 20.65625h-25.226562c11.40625 0 20.652344-9.246093 20.652344-20.65625v-29.105469zm0 0" fill="#acacac"/><path d="m457.089844 77.957031h-402.328125v-49.804687c0-11.40625 9.246093-20.652344 20.648437-20.652344h361.027344c11.40625 0 20.652344 9.246094 20.652344 20.652344zm0 0" fill="#bfbfbf"/><path d="m457.09375 28.148438v49.8125h-25.691406v-49.8125c0-11.398438-9.246094-20.644532-20.652344-20.644532h25.691406c11.40625 0 20.652344 9.246094 20.652344 20.644532zm0 0" fill="#acacac"/><path d="m199.199219 344.300781h112.542969v33.925781h-112.542969zm0 0" fill="#838383"/><path d="m292.832031 344.804688h18.910157v32.917968h-18.910157zm0 0" fill="#5a5a5a"/><path d="m348.210938 411.5h-185.480469c-2.234375 0-4.046875-1.8125-4.046875-4.046875v-13.117187c0-8.898438 7.210937-16.109376 16.105468-16.109376h161.363282c8.894531 0 16.105468 7.210938 16.105468 16.109376v13.117187c.003907 2.234375-1.8125 4.046875-4.046874 4.046875zm0 0" fill="#bfbfbf"/><path d="m352.257812 394.332031v13.125c0 2.234375-1.8125 4.046875-4.046874 4.046875h-14.289063v-17.175781c0-8.886719-7.214844-16.101563-16.105469-16.101563h18.339844c8.894531 0 16.101562 7.210938 16.101562 16.105469zm0 0" fill="#acacac"/><path d="m104.773438 42.558594c0 6.488281-5.261719 11.746094-11.75 11.746094-6.488282 0-11.746094-5.257813-11.746094-11.746094 0-6.488282 5.257812-11.75 11.746094-11.75 6.488281 0 11.75 5.261718 11.75 11.75zm0 0" fill="#ff5757"/><path d="m150.144531 42.558594c0 6.488281-5.261719 11.746094-11.75 11.746094s-11.746093-5.257813-11.746093-11.746094c0-6.488282 5.257812-11.75 11.746093-11.75s11.75 5.261718 11.75 11.75zm0 0" fill="#ffcd6b"/><path d="m195.515625 42.558594c0 6.488281-5.261719 11.746094-11.75 11.746094s-11.746094-5.257813-11.746094-11.746094c0-6.488282 5.257813-11.75 11.746094-11.75s11.75 5.261718 11.75 11.75zm0 0" fill="#00d3b4"/><path d="m104.769531 42.5625c0 6.484375-5.257812 11.738281-11.742187 11.738281-3.140625 0-6-1.230469-8.105469-3.246093 6.355469-.140626 11.472656-5.335938 11.472656-11.734376 0-3.351562-1.398437-6.363281-3.640625-8.5.089844-.007812.183594-.007812.273438-.007812 6.488281 0 11.742187 5.253906 11.742187 11.75zm0 0" fill="#ff4343"/><path d="m150.140625 42.5625c0 6.484375-5.253906 11.738281-11.746094 11.738281-3.140625 0-5.992187-1.230469-8.105469-3.246093 6.363282-.140626 11.480469-5.335938 11.480469-11.734376 0-3.351562-1.402343-6.363281-3.640625-8.5.085938-.007812.175782-.007812.265625-.007812 6.492188 0 11.746094 5.253906 11.746094 11.75zm0 0" fill="#ffc143"/><path d="m195.515625 42.5625c0 6.484375-5.261719 11.738281-11.746094 11.738281-3.144531 0-5.992187-1.230469-8.105469-3.246093 6.363282-.140626 11.472657-5.335938 11.472657-11.734376 0-3.351562-1.402344-6.363281-3.644531-8.5.089843-.007812.1875-.007812.277343-.007812 6.484375 0 11.746094 5.253906 11.746094 11.75zm0 0" fill="#00b7a0"/><path d="m203.636719 262.25h-99.558594c-2.761719 0-5-2.238281-5-5v-75.765625c0-2.761719 2.238281-5 5-5h99.558594c2.761719 0 5 2.238281 5 5v75.765625c0 2.761719-2.238281 5-5 5zm0 0" fill="#ffb509"/><path d="m208.632812 181.484375v75.769531c0 2.757813-2.238281 5-5 5h-15.457031c2.757813 0 5-2.242187 5-5v-75.769531c0-2.761719-2.242187-5-5-5h15.457031c2.761719 0 5 2.238281 5 5zm0 0" fill="#fa0"/><path d="m101.167969 123.695312h49.308593c4.140626 0 7.5-3.355468 7.5-7.5 0-4.140624-3.359374-7.5-7.5-7.5h-49.308593c-4.144531 0-7.5 3.359376-7.5 7.5 0 4.144532 3.355469 7.5 7.5 7.5zm0 0"/><path d="m177.355469 123.695312h86.695312c4.140625 0 7.5-3.355468 7.5-7.5 0-4.140624-3.359375-7.5-7.5-7.5h-86.695312c-4.140625 0-7.5 3.359376-7.5 7.5 0 4.144532 3.359375 7.5 7.5 7.5zm0 0"/><path d="m101.167969 152.308594h21.003906c4.140625 0 7.5-3.355469 7.5-7.5 0-4.140625-3.359375-7.5-7.5-7.5h-21.003906c-4.144531 0-7.5 3.359375-7.5 7.5 0 4.144531 3.355469 7.5 7.5 7.5zm0 0"/><path d="m257.5625 144.808594c0-4.140625-3.359375-7.5-7.5-7.5h-12.792969c-4.140625 0-7.5 3.359375-7.5 7.5 0 4.144531 3.359375 7.5 7.5 7.5h12.792969c4.140625 0 7.5-3.355469 7.5-7.5zm0 0"/><path d="m147.855469 137.308594c-4.140625 0-7.5 3.359375-7.5 7.5 0 4.144531 3.359375 7.5 7.5 7.5h62.828125c4.140625 0 7.5-3.355469 7.5-7.5 0-4.140625-3.359375-7.5-7.5-7.5zm0 0"/><path d="m265.773438 144.808594c0 4.144531 3.359374 7.5 7.5 7.5h23.960937c4.140625 0 7.5-3.355469 7.5-7.5 0-4.140625-3.359375-7.5-7.5-7.5h-23.960937c-4.140626 0-7.5 3.359375-7.5 7.5zm0 0"/><path d="m269.445312 176.734375h-21.429687c-4.144531 0-7.5 3.355469-7.5 7.5s3.355469 7.5 7.5 7.5h21.429687c4.144532 0 7.5-3.355469 7.5-7.5s-3.355468-7.5-7.5-7.5zm0 0"/><path d="m295.953125 184.234375c0 4.144531 3.355469 7.5 7.5 7.5h34.578125c4.140625 0 7.5-3.355469 7.5-7.5s-3.359375-7.5-7.5-7.5h-34.578125c-4.144531 0-7.5 3.359375-7.5 7.5zm0 0"/><path d="m367.75 191.734375h44.578125c4.144531 0 7.5-3.355469 7.5-7.5s-3.355469-7.5-7.5-7.5h-44.578125c-4.144531 0-7.5 3.355469-7.5 7.5s3.355469 7.5 7.5 7.5zm0 0"/><path d="m240.515625 219.367188c0 4.144531 3.355469 7.5 7.5 7.5h55.4375c4.140625 0 7.5-3.355469 7.5-7.5 0-4.144532-3.359375-7.5-7.5-7.5h-55.4375c-4.144531 0-7.5 3.359374-7.5 7.5zm0 0"/><path d="m330.53125 219.367188c0 4.144531 3.355469 7.5 7.5 7.5h13.574219c4.140625 0 7.5-3.355469 7.5-7.5 0-4.144532-3.359375-7.5-7.5-7.5h-13.574219c-4.144531 0-7.5 3.359374-7.5 7.5zm0 0"/><path d="m412.328125 211.867188h-27.144531c-4.144532 0-7.5 3.355468-7.5 7.5 0 4.144531 3.355468 7.5 7.5 7.5h27.144531c4.144531 0 7.5-3.355469 7.5-7.5 0-4.144532-3.355469-7.5-7.5-7.5zm0 0"/><path d="m269.445312 247h-21.429687c-4.144531 0-7.5 3.355469-7.5 7.5s3.355469 7.5 7.5 7.5h21.429687c4.144532 0 7.5-3.355469 7.5-7.5s-3.355468-7.5-7.5-7.5zm0 0"/><path d="m367.75 247h-64.296875c-4.144531 0-7.5 3.355469-7.5 7.5s3.355469 7.5 7.5 7.5h64.296875c4.140625 0 7.5-3.355469 7.5-7.5s-3.359375-7.5-7.5-7.5zm0 0"/><path d="m412.328125 247h-13.574219c-4.140625 0-7.5 3.355469-7.5 7.5s3.359375 7.5 7.5 7.5h13.574219c4.144531 0 7.5-3.355469 7.5-7.5s-3.355469-7.5-7.5-7.5zm0 0"/><path d="m377.378906 460.640625h-4.929687v-4.304687c0-9.222657-7.503907-16.726563-16.726563-16.726563h-15.1875c-3.496094 0-6.738281 1.082031-9.425781 2.921875-2.6875-1.839844-5.933594-2.921875-9.429687-2.921875h-15.1875c-3.496094 0-6.742188 1.082031-9.425782 2.921875-2.6875-1.839844-5.933594-2.921875-9.425781-2.921875h-15.191406c-9.222657 0-16.722657 7.503906-16.722657 16.726563v4.304687h-19.449218v-4.304687c0-9.222657-7.503906-16.726563-16.722656-16.726563h-15.191407c-3.496093 0-6.738281 1.082031-9.425781 2.921875-2.6875-1.839844-5.933594-2.921875-9.425781-2.921875h-15.191407c-3.40625 0-6.578124 1.03125-9.222656 2.789063-2.648437-1.757813-5.816406-2.789063-9.226562-2.789063h-83.675782c-3.496093 0-6.742187 1.082031-9.429687 2.921875-2.683594-1.839844-5.929687-2.921875-9.425781-2.921875h-15.1875c-9.222656 0-16.722656 7.503906-16.722656 16.726563v4.304687h-4.929688c-6.894531 0-12.5 5.605469-12.5 12.5v26.359375c0 6.894531 5.605469 12.5 12.5 12.5h59.515625c4.144531 0 7.5-3.355469 7.5-7.5s-3.355469-7.5-7.5-7.5h-57.015625v-21.359375h359.878906v21.359375h-268.859375c-4.140625 0-7.5 3.355469-7.5 7.5s3.359375 7.5 7.5 7.5h271.359375c6.894532 0 12.5-5.605469 12.5-12.5v-26.359375c0-6.894531-5.609375-12.5-12.5-12.5zm-326.3125 0h-18.636718v-4.304687c0-.953126.769531-1.726563 1.722656-1.726563h15.1875c.949218 0 1.726562.773437 1.726562 1.726563zm102.53125 0h-87.125v-4.304687c0-.953126.769532-1.726563 1.722656-1.726563h83.679688c.949219 0 1.726562.773437 1.726562 1.726563v4.304687zm33.636719 0h-18.636719v-4.304687c0-.953126.773438-1.726563 1.722656-1.726563h15.191407c.949219 0 1.722656.773437 1.722656 1.726563zm34.042969 0h-18.636719v-4.304687c0-.953126.773437-1.726563 1.722656-1.726563h15.191407c.949218 0 1.722656.773437 1.722656 1.726563zm68.085937 0h-18.636719v-4.304687c0-.953126.773438-1.726563 1.722657-1.726563h15.191406c.949219 0 1.722656.773437 1.722656 1.726563zm34.042969 0h-18.636719v-4.304687c0-.953126.773438-1.726563 1.722657-1.726563h15.191406c.949218 0 1.722656.773437 1.722656 1.726563zm34.042969 0h-18.636719v-4.304687c0-.953126.773438-1.726563 1.722656-1.726563h15.1875c.953125 0 1.726563.773437 1.726563 1.726563zm0 0"/><path d="m477.296875 436.050781h-44.023437c-18.875 0-34.234376 15.355469-34.234376 34.230469v29.21875c0 6.894531 5.609376 12.5 12.5 12.5h87.492188c6.894531 0 12.5-5.605469 12.5-12.5v-29.21875c0-18.875-15.355469-34.230469-34.234375-34.230469zm19.234375 60.949219h-82.492188v-26.71875c0-10.601562 8.628907-19.230469 19.234376-19.230469h44.023437c10.605469 0 19.234375 8.628907 19.234375 19.230469zm0 0"/><path d="m74.96875 351.800781h116.730469v18.925781h-16.910157c-13.015624 0-23.605468 10.589844-23.605468 23.605469v13.121094c0 6.367187 5.179687 11.546875 11.546875 11.546875h109.785156c4.140625 0 7.5-3.355469 7.5-7.5 0-4.140625-3.359375-7.5-7.5-7.5h-106.332031v-9.667969c0-4.746093 3.863281-8.605469 8.605468-8.605469h161.359376c4.75 0 8.609374 3.859376 8.609374 8.605469v9.667969h-37.242187c-4.144531 0-7.5 3.359375-7.5 7.5 0 4.144531 3.355469 7.5 7.5 7.5h40.695313c6.367187 0 11.546874-5.179688 11.546874-11.546875v-13.121094c0-13.015625-10.589843-23.605469-23.609374-23.605469h-16.90625v-18.925781h116.734374c15.523438 0 28.15625-12.628906 28.15625-28.152343l.457032-295.496094c0-15.523438-12.628906-28.152344-28.152344-28.152344h-361.46875c-15.527344 0-28.15625 12.628906-28.15625 28.152344v295.492187c0 15.527344 12.628906 28.15625 28.15625 28.15625zm229.273438 18.925781h-97.542969v-18.925781h97.542969zm-241.980469-342.574218c0-7.253906 5.898437-13.152344 13.152343-13.152344h360.5625c7.253907 0 13.15625 5.902344 13.15625 13.152344v42.304687h-386.871093zm-.449219 57.304687h387.320312v201.582031h-387.320312zm0 216.582031h387.320312v21.605469c0 7.253907-5.902343 13.15625-13.15625 13.15625h-361.007812c-7.253906 0-13.15625-5.902343-13.15625-13.15625zm0 0"/><path d="m93.023438 23.308594c-10.613282 0-19.246094 8.636718-19.246094 19.25 0 10.613281 8.632812 19.246094 19.246094 19.246094 10.613281 0 19.25-8.632813 19.25-19.246094 0-10.613282-8.636719-19.25-19.25-19.25zm0 23.496094c-2.339844 0-4.246094-1.90625-4.246094-4.246094 0-2.34375 1.90625-4.25 4.246094-4.25 2.34375 0 4.25 1.90625 4.25 4.25 0 2.339844-1.90625 4.246094-4.25 4.246094zm0 0"/><path d="m138.394531 23.308594c-10.613281 0-19.246093 8.636718-19.246093 19.25 0 10.613281 8.632812 19.246094 19.246093 19.246094s19.25-8.632813 19.25-19.246094c0-10.613282-8.636719-19.25-19.25-19.25zm0 23.496094c-2.339843 0-4.246093-1.90625-4.246093-4.246094 0-2.34375 1.90625-4.25 4.246093-4.25 2.34375 0 4.25 1.90625 4.25 4.25 0 2.339844-1.90625 4.246094-4.25 4.246094zm0 0"/><path d="m183.765625 23.308594c-10.613281 0-19.246094 8.636718-19.246094 19.25 0 10.613281 8.632813 19.246094 19.246094 19.246094s19.25-8.632813 19.25-19.246094c0-10.613282-8.632813-19.25-19.25-19.25zm0 23.496094c-2.339844 0-4.246094-1.90625-4.246094-4.246094 0-2.34375 1.90625-4.25 4.246094-4.25 2.34375 0 4.25 1.90625 4.25 4.25 0 2.339844-1.90625 4.246094-4.25 4.246094zm0 0"/><path d="m104.078125 269.75h99.558594c6.890625 0 12.5-5.605469 12.5-12.5v-75.765625c0-6.894531-5.609375-12.5-12.5-12.5h-99.558594c-6.894531 0-12.5 5.605469-12.5 12.5v75.765625c0 6.894531 5.609375 12.5 12.5 12.5zm2.5-85.765625h94.558594v70.765625h-94.558594zm0 0"/></svg>